<svg xmlns="http://www.w3.org/2000/svg" width="170" height="52" fill="none"><path fill="#fff" d="M34.676 27.595c-.221 2.247-1.014 3.284-2.377 4.93l5.089 5.078-1.712 1.709-5.09-5.079a11.306 11.306 0 0 1-5.849 2.42v7.167H22.36v-7.167c-2.22-.253-4.17-1.06-5.85-2.42l-5.092 5.08-1.712-1.709 5.09-5.078a9.417 9.417 0 0 1-1.618-2.706c-.38-.98-.65-2.026-.808-3.134H5.189v-2.372h7.181c.159-1.108.428-2.136.808-3.086.38-.98.92-1.9 1.617-2.754l-5.089-5.078 1.712-1.71 5.09 5.08c1.648-1.36 3.598-2.152 5.849-2.373V7.178h2.377v7.215c2.22.253 4.17 1.045 5.85 2.373l5.089-5.08 1.712 1.71-5.089 5.078c1.363 1.677 2.156 2.715 2.377 4.93h12.324C45.937 11.407 35.844 2 23.547 2 10.543 2 0 12.522 0 25.5S10.543 49 23.547 49C35.844 49 45.937 39.592 47 27.595H34.676Z"/><path fill="#fff" d="M28.472 30.464c-1.38 1.378-3.04 2.069-4.974 2.067-1.934 0-3.591-.689-4.973-2.067-1.381-1.378-2.073-3.034-2.072-4.964 0-1.93.69-3.584 2.072-4.964 1.38-1.378 3.056-2.05 5.025-2.017 1.934 0 3.575.673 4.922 2.017 1.381 1.378 2.073 3.034 2.072 4.964.001 1.93-.69 3.584-2.072 4.964Z"/><g fill="#fff" class="hidden lg:inline-block"><path d="m63 21.43 3.24-.084v6.318c1.724.023 3.45.043 5.175.066v2.24L63 29.752V21.43ZM72.926 30.011v-8.838c1.08-.028 2.16-.055 3.24-.085v9.006l-3.24-.083ZM86.166 21.078c.772.258 1.385.655 1.84 1.193.453.537.68 1.201.68 1.988l-3.093.023c0-.395-.186-.714-.556-.952-.372-.24-.821-.354-1.35-.345-.762.01-1.338.208-1.729.586-.39.38-.586.909-.586 1.592v.863c0 .684.195 1.212.586 1.592.391.378.968.576 1.73.586.528.007.977-.102 1.349-.33.372-.23.556-.53.556-.897l-2.287-.018V25.05l5.38-.015v5.39c-.556-.013-1.114-.029-1.67-.043-.108-.317-.215-.636-.324-.952-.919.722-2.12 1.055-3.606 1.015-1.671-.046-2.928-.482-3.768-1.296-.84-.813-1.261-1.99-1.261-3.553 0-1.543.476-2.717 1.43-3.542.952-.824 2.309-1.27 4.068-1.318.968-.03 1.838.083 2.61.342ZM97.497 30.651v-3.837l-3.563-.023v3.768c-1.08-.028-2.16-.055-3.24-.085v-9.762l3.24-.085v3.624c1.187-.009 2.376-.018 3.563-.024v-3.692l3.239-.085v10.286c-1.08-.03-2.16-.057-3.24-.085ZM108.71 22.978v7.964c-1.08-.027-2.159-.055-3.239-.085V23.02l-3.314.041v-2.65c3.284-.084 6.567-.17 9.853-.256v2.781l-3.3.042ZM120.29 31.244v-4.288l-3.563-.023v4.22c-1.079-.029-2.159-.056-3.239-.086v-10.95l3.239-.085v4.056c1.187-.009 2.376-.018 3.563-.024V19.94c1.08-.028 2.16-.055 3.239-.085v11.472l-3.239-.083ZM134.747 20.948c.948 1.043 1.422 2.597 1.422 4.643s-.474 3.602-1.422 4.644c-.947 1.045-2.292 1.533-4.03 1.486-1.741-.047-3.082-.6-4.025-1.639-.943-1.04-1.414-2.532-1.414-4.49 0-1.96.471-3.451 1.414-4.492.943-1.039 2.284-1.592 4.025-1.639 1.738-.046 3.081.443 4.03 1.487Zm-5.615 2.113c-.361.494-.542 1.155-.542 1.986v1.092c0 .83.181 1.491.542 1.986.361.494.889.747 1.583.757.694.01 1.223-.229 1.591-.723.367-.492.55-1.163.55-2.01v-1.111c0-.846-.183-1.517-.55-2.01-.368-.492-.897-.733-1.591-.723-.694.007-1.222.262-1.583.756ZM146.652 30.788c-.871.891-2.106 1.307-3.71 1.264-1.603-.043-2.842-.522-3.717-1.422-.875-.9-1.311-2.178-1.311-3.848v-7.301l3.239-.085v7.347c0 .697.152 1.252.454 1.671.303.418.743.633 1.32.642.577.008 1.018-.198 1.327-.62.307-.42.462-.98.462-1.676v-7.458c1.08-.028 2.159-.055 3.239-.085v7.614c.002 1.744-.433 3.067-1.303 3.957ZM157.542 19.768c.831.668 1.257 1.682 1.276 3.038v.233l-3.035.03v-.077c0-.383-.107-.699-.323-.952-.216-.252-.542-.373-.982-.366-.43.007-.76.094-.99.262-.23.168-.345.371-.345.61 0 .34.156.592.47.753.312.161.816.328 1.51.5.812.21 1.478.434 2 .669.523.234.981.622 1.372 1.163.391.541.591 1.278.6 2.207 0 1.577-.403 2.738-1.209 3.479-.807.74-1.884 1.087-3.233 1.05-1.573-.043-2.798-.416-3.673-1.11-.875-.696-1.312-1.891-1.312-3.594l3.065.026c0 .656.132 1.094.396 1.318.263.224.674.342 1.231.35.41.007.75-.045 1.018-.156.268-.11.404-.345.404-.702 0-.319-.15-.558-.448-.721-.298-.162-.785-.333-1.458-.515-.821-.233-1.501-.474-2.038-.72-.538-.246-1.008-.652-1.408-1.212-.401-.56-.601-1.318-.601-2.277 0-1.406.427-2.448 1.283-3.136.855-.689 1.938-1.056 3.248-1.093 1.291-.036 2.352.276 3.182.943ZM160.709 18.888c2.908-.077 5.815-.151 8.722-.228v3.325l-5.483.074v1.874l4.692-.029v3.175l-4.692-.026v2.072l5.585.076v3.326l-8.826-.23c.002-4.47.002-8.94.002-13.41Z"/></g></svg>